# xmcd
#
# Track frame offsets:
#	150
#	17368
#	34984
#	54214
#	76575
#	96495
#	112262
#	124555
#	144756
#	162403
#	179634
#	206671
#	223310
#	238243
#	259537
#	277480
#	292834
#	309666
#	326936
#	340443
#
# Disc length: 4768 seconds
#
# Revision: 0
# Processed by: cddbd v1.5.2PL0 Copyright (c) Steve Scherf et al.
# Submitted via: audiograbber 1.83.01
#
DISCID=36129e14
DTITLE=Various Artist - 101 Motown Anthems [CD 5 of 5)
DYEAR=2017
DGENRE=Funk/Soul
TTITLE0=DeBarge - Rhythm Of The Night
TTITLE1=Diana Ross - I'm Coming Out
TTITLE2=Shanice - I Love Your Smile
TTITLE3=Commodores - Nightshift
TTITLE4=Dazz Band - Let It Whip
TTITLE5=Jermaine Jackson - Let's Get Serious
TTITLE6=Smokey Robinson - Walk On By
TTITLE7=Mary Jane Girls - Candy Man
TTITLE8=Boyz II Men - Motownphilly
TTITLE9=Rockwell - Somebody's Watching Me
TTITLE10=Teena Marie - Behind The Groove
TTITLE11=Commodores - Brick House
TTITLE12=Rick James - Super Freak
TTITLE13=Commodores - Lady (You Bring Me Up)
TTITLE14=Dennis Edwards feat Siedah Garrett - Don't Look Any Further
TTITLE15=Marvin Gaye - Yesterday
TTITLE16=Charlene - I've Never Been To Me
TTITLE17=Diana Ross - My Old Piano
TTITLE18=Bruce Willis - Under The Boardwalk
TTITLE19=Marvin Gaye - What's Going On
EXTD=
EXTT0=
EXTT1=
EXTT2=
EXTT3=
EXTT4=
EXTT5=
EXTT6=
EXTT7=
EXTT8=
EXTT9=
EXTT10=
EXTT11=
EXTT12=
EXTT13=
EXTT14=
EXTT15=
EXTT16=
EXTT17=
EXTT18=
EXTT19=
PLAYORDER=
